<?xml version="1.0" encoding="utf-8"?>
<!-- Generator: Adobe Illustrator 16.0.0, SVG Export Plug-In . SVG Version: 6.00 Build 0)  -->
<!DOCTYPE svg PUBLIC "-//W3C//DTD SVG 1.1//EN" "http://www.w3.org/Graphics/SVG/1.1/DTD/svg11.dtd">
<svg version="1.1" id="Layer_1" xmlns="http://www.w3.org/2000/svg" xmlns:xlink="http://www.w3.org/1999/xlink" x="0px" y="0px"
	 width="100.018px" height="100px" viewBox="467.982 0 100.018 100" enable-background="new 467.982 0 100.018 100"
	 xml:space="preserve">
<g transform="translate(-1 -10)">
	<path d="M506.222,46.471c0,0-0.586,6.158,1.44,9.125c2.041,2.966,3.768,1.723,5.479,1.094c1.726-0.629,5.612-2.203,7.894,2.022
		s-1.786,8.615-4.292,10.488c-2.507,1.873-5.958,4.54-6.273,10.788c-0.315,6.263,0.945,10.474,6.273,11.417s8.869-3.926,9.02-10.607
		c0.15-6.683,0.495-11.927,2.296-16.946c1.802-5.034,2.837-7.776,3.047-11.537s-4.067-9.454-11.886-11.687
		c-7.805-2.232-12.202,0.584-13.013,5.844H506.222z M512.157,29.212c3.158,2.63,0.136,12.505-4.396,8.367
		C504.738,34.815,508.168,25.88,512.157,29.212z M519.564,31.496c1.937,3.563-2.058,8.148-4.267,4.42
		C513.573,32.999,517.265,27.256,519.564,31.496z M522.876,33.96c-1.164-0.195-2.298,0.749-2.524,2.111s0.529,2.635,1.692,2.83
		c1.164,0.195,2.298-0.749,2.524-2.111S524.039,34.155,522.876,33.96z M527.046,36.976c-0.945-0.167-1.862,0.636-2.054,1.772
		c-0.192,1.136,0.428,2.197,1.359,2.363c0.946,0.167,1.862-0.636,2.055-1.772C528.598,38.203,527.978,37.142,527.046,36.976z
		 M530.405,40.342c-0.947-0.165-1.849,0.615-2.044,1.725s0.421,2.13,1.367,2.294c0.947,0.165,1.849-0.615,2.044-1.725
		S531.352,40.507,530.405,40.342z"/>
	<ellipse fill="none" stroke="#000000" stroke-width="9" cx="518.976" cy="60" rx="45.024" ry="45"/>
</g>
</svg>
